# Blender v2.78 (sub 0) OBJ File: ''
# www.blender.org
mtllib hoop.collision.mtl
o Cylinder
v 0.000000 0.229909 -0.168195
v 0.000000 0.371555 -0.225860
v 0.159707 0.371555 -0.159707
v 0.118931 0.229909 -0.118931
v 0.225860 0.371555 0.000000
v 0.168195 0.229909 0.000000
v 0.159707 0.371555 0.159707
v 0.118931 0.229909 0.118931
v 0.000000 0.371555 0.225860
v 0.000000 0.229909 0.168195
v -0.159708 0.371555 0.159707
v -0.118932 0.229909 0.118931
v -0.225860 0.371555 0.000000
v -0.168195 0.229909 0.000000
v -0.159708 0.371555 -0.159707
v -0.118932 0.229909 -0.118931
v -0.063068 -0.053383 -0.063068
v -0.060922 0.088263 -0.060922
v 0.000000 0.088263 -0.086157
v 0.000000 -0.053383 -0.089191
v -0.089191 -0.053383 -0.000000
v -0.086157 0.088263 0.000000
v -0.063068 -0.053383 0.063068
v -0.060922 0.088263 0.060922
v 0.000000 -0.053383 0.089191
v 0.000000 0.088263 0.086157
v 0.063068 -0.053383 0.063068
v 0.060922 0.088263 0.060922
v 0.089191 -0.053383 -0.000000
v 0.086157 0.088263 0.000000
v 0.063068 -0.053383 -0.063068
v 0.060922 0.088263 -0.060922
v 0.000000 0.234245 -0.159184
v 0.000000 0.375326 -0.216598
v 0.153158 0.375326 -0.153158
v 0.112559 0.234245 -0.112559
v 0.216598 0.375326 0.000000
v 0.159184 0.234245 0.000000
v 0.153158 0.375326 0.153158
v 0.112559 0.234245 0.112559
v 0.000000 0.375326 0.216598
v 0.000000 0.234245 0.159184
v -0.153159 0.375326 0.153158
v -0.112560 0.234245 0.112559
v -0.216598 0.375326 0.000000
v -0.159184 0.234245 0.000000
v -0.153159 0.375326 -0.153158
v -0.112560 0.234245 -0.112559
v -0.055999 -0.053597 -0.055999
v -0.054107 0.090929 -0.054107
v 0.000000 0.090929 -0.076519
v 0.000000 -0.053597 -0.079193
v -0.079193 -0.053597 -0.000000
v -0.076519 0.090929 0.000000
v -0.055999 -0.053597 0.055999
v -0.054107 0.090929 0.054107
v 0.000000 -0.053597 0.079193
v 0.000000 0.090929 0.076519
v 0.055999 -0.053597 0.055999
v 0.054107 0.090929 0.054107
v 0.079193 -0.053597 -0.000000
v 0.076519 0.090929 0.000000
v 0.055999 -0.053597 -0.055999
v 0.054107 0.090929 -0.054107
vn 0.3582 -0.3520 -0.8647
vn 0.0000 0.3377 -0.9413
vn 0.6656 0.3377 -0.6656
vn 0.8647 -0.3520 -0.3582
vn 0.9413 0.3377 0.0000
vn 0.8647 -0.3520 0.3582
vn 0.6656 0.3377 0.6656
vn 0.3582 -0.3520 0.8647
vn 0.0000 0.3377 0.9413
vn -0.3582 -0.3520 0.8647
vn -0.6656 0.3377 0.6656
vn -0.8647 -0.3520 0.3582
vn -0.9413 0.3377 0.0000
vn -0.8647 -0.3520 -0.3582
vn -0.6656 0.3377 -0.6656
vn -0.3582 -0.3520 -0.8647
vn -0.5573 -0.6155 -0.5573
vn -0.3826 0.0198 -0.9237
vn 0.0000 -0.6155 -0.7881
vn -0.3374 -0.4718 -0.8146
vn -0.7881 -0.6155 -0.0000
vn -0.9237 0.0198 -0.3826
vn -0.8146 -0.4718 -0.3374
vn -0.5573 -0.6155 0.5573
vn -0.9237 0.0198 0.3826
vn -0.8146 -0.4718 0.3374
vn 0.0000 -0.6155 0.7881
vn -0.3826 0.0198 0.9237
vn -0.3374 -0.4718 0.8146
vn 0.5573 -0.6155 0.5573
vn 0.3826 0.0198 0.9237
vn 0.3374 -0.4718 0.8146
vn 0.7881 -0.6155 -0.0000
vn 0.9237 0.0198 0.3826
vn 0.8146 -0.4718 0.3374
vn 0.5573 -0.6155 -0.5573
vn 0.9237 0.0198 -0.3826
vn 0.8146 -0.4718 -0.3374
vn 0.3826 0.0198 -0.9237
vn 0.3374 -0.4718 -0.8146
vn -0.3582 0.3519 0.8648
vn -0.1558 0.9754 0.1558
vn -0.0000 0.9754 0.2204
vn -0.8648 0.3519 0.3582
vn -0.2204 0.9754 0.0000
vn -0.8648 0.3519 -0.3582
vn -0.1558 0.9754 -0.1558
vn -0.3582 0.3519 -0.8648
vn -0.0000 0.9754 -0.2204
vn 0.3582 0.3519 -0.8648
vn 0.1558 0.9754 -0.1558
vn 0.8648 0.3519 -0.3582
vn 0.2204 0.9754 0.0000
vn 0.8648 0.3519 0.3582
vn 0.1558 0.9754 0.1558
vn 0.3582 0.3519 0.8648
vn 0.4074 -0.8173 0.4074
vn 0.0000 -0.8173 0.5761
vn 0.3826 -0.0171 0.9237
vn 0.3377 0.4703 0.8153
vn 0.5761 -0.8173 -0.0000
vn 0.9237 -0.0171 0.3826
vn 0.8153 0.4703 0.3377
vn 0.4074 -0.8173 -0.4074
vn 0.9237 -0.0171 -0.3826
vn 0.8153 0.4703 -0.3377
vn 0.0000 -0.8173 -0.5761
vn 0.3826 -0.0171 -0.9237
vn 0.3377 0.4703 -0.8153
vn -0.4074 -0.8173 -0.4074
vn -0.3826 -0.0171 -0.9237
vn -0.3377 0.4703 -0.8153
vn -0.5761 -0.8173 -0.0000
vn -0.9237 -0.0171 -0.3826
vn -0.8153 0.4703 -0.3377
vn -0.4074 -0.8173 0.4074
vn -0.9237 -0.0171 0.3826
vn -0.8153 0.4703 0.3377
vn -0.3826 -0.0171 0.9237
vn -0.3377 0.4703 0.8153
usemtl None
s 1
f 1//1 2//2 3//3 4//1
f 4//4 3//3 5//5 6//4
f 6//6 5//5 7//7 8//6
f 8//8 7//7 9//9 10//8
f 10//10 9//9 11//11 12//10
f 12//12 11//11 13//13 14//12
f 14//14 13//13 15//15 16//14
f 16//16 15//15 2//2 1//16
f 17//17 18//18 19//18 20//19
f 18//20 16//20 1//20 19//20
f 21//21 22//22 18//22 17//17
f 22//23 14//23 16//23 18//23
f 23//24 24//25 22//25 21//21
f 24//26 12//26 14//26 22//26
f 25//27 26//28 24//28 23//24
f 26//29 10//29 12//29 24//29
f 27//30 28//31 26//31 25//27
f 28//32 8//32 10//32 26//32
f 29//33 30//34 28//34 27//30
f 30//35 6//35 8//35 28//35
f 31//36 32//37 30//37 29//33
f 32//38 4//38 6//38 30//38
f 20//19 19//39 32//39 31//36
f 19//40 1//40 4//40 32//40
f 33//41 36//41 35//42 34//43
f 36//44 38//44 37//45 35//42
f 38//46 40//46 39//47 37//45
f 40//48 42//48 41//49 39//47
f 42//50 44//50 43//51 41//49
f 44//52 46//52 45//53 43//51
f 46//54 48//54 47//55 45//53
f 48//56 33//56 34//43 47//55
f 49//57 52//58 51//59 50//59
f 50//60 51//60 33//60 48//60
f 53//61 49//57 50//62 54//62
f 54//63 50//63 48//63 46//63
f 55//64 53//61 54//65 56//65
f 56//66 54//66 46//66 44//66
f 57//67 55//64 56//68 58//68
f 58//69 56//69 44//69 42//69
f 59//70 57//67 58//71 60//71
f 60//72 58//72 42//72 40//72
f 61//73 59//70 60//74 62//74
f 62//75 60//75 40//75 38//75
f 63//76 61//73 62//77 64//77
f 64//78 62//78 38//78 36//78
f 52//58 63//76 64//79 51//79
f 51//80 64//80 36//80 33//80
f 17//17 20//19 52//58 49//57
f 7//7 5//5 37//45 39//47
f 27//30 25//27 57//67 59//70
f 9//9 7//7 39//47 41//49
f 11//11 9//9 41//49 43//51
f 3//3 2//2 34//43 35//42
f 29//33 27//30 59//70 61//73
f 20//19 31//36 63//76 52//58
f 2//2 15//15 47//55 34//43
f 23//24 21//21 53//61 55//64
f 13//13 11//11 43//51 45//53
f 31//36 29//33 61//73 63//76
f 25//27 23//24 55//64 57//67
f 5//5 3//3 35//42 37//45
f 21//21 17//17 49//57 53//61
f 15//15 13//13 45//53 47//55
