# Blender v2.78 (sub 0) OBJ File: ''
# www.blender.org
mtllib rim.collision.mtl
o Torus.001
v 0.231292 0.378772 0.000000
v 0.227857 0.385654 0.000000
v 0.227857 0.371889 0.000000
v 0.163548 0.378772 -0.163548
v 0.161119 0.385654 -0.161119
v 0.161119 0.371889 -0.161119
v 0.000000 0.378772 -0.231292
v 0.000000 0.385654 -0.227857
v 0.000000 0.371889 -0.227857
v -0.163548 0.378772 -0.163548
v -0.161119 0.385654 -0.161119
v -0.161119 0.371889 -0.161119
v -0.231292 0.378772 -0.000000
v -0.227857 0.385654 -0.000000
v -0.227857 0.371889 -0.000000
v -0.163548 0.378772 0.163548
v -0.161119 0.385654 0.161119
v -0.161119 0.371889 0.161119
v 0.000000 0.378772 0.231292
v 0.000000 0.385654 0.227857
v 0.000000 0.371889 0.227857
v 0.163548 0.378772 0.163548
v 0.161119 0.385654 0.161119
v 0.161119 0.371889 0.161119
vn 0.8390 0.4187 -0.3475
vn -0.9239 0.0000 0.3827
vn 0.8390 -0.4187 -0.3475
vn 0.3475 0.4187 -0.8390
vn -0.3827 0.0000 0.9239
vn 0.3475 -0.4187 -0.8390
vn -0.3475 0.4187 -0.8390
vn 0.3827 0.0000 0.9239
vn -0.3475 -0.4187 -0.8390
vn -0.8390 0.4187 -0.3475
vn 0.9239 0.0000 0.3827
vn -0.8390 -0.4187 -0.3475
vn -0.8390 0.4187 0.3475
vn 0.9239 0.0000 -0.3827
vn -0.8390 -0.4187 0.3475
vn -0.3475 0.4187 0.8390
vn 0.3827 0.0000 -0.9239
vn -0.3475 -0.4187 0.8390
vn 0.3475 0.4187 0.8390
vn -0.3827 0.0000 -0.9239
vn 0.3475 -0.4187 0.8390
vn 0.8390 0.4187 0.3475
vn -0.9239 0.0000 -0.3827
vn 0.8390 -0.4187 0.3475
usemtl None
s off
f 1//1 4//1 5//1 2//1
f 2//2 5//2 6//2 3//2
f 1//3 3//3 6//3 4//3
f 4//4 7//4 8//4 5//4
f 5//5 8//5 9//5 6//5
f 6//6 9//6 7//6 4//6
f 7//7 10//7 11//7 8//7
f 8//8 11//8 12//8 9//8
f 9//9 12//9 10//9 7//9
f 10//10 13//10 14//10 11//10
f 11//11 14//11 15//11 12//11
f 12//12 15//12 13//12 10//12
f 13//13 16//13 17//13 14//13
f 14//14 17//14 18//14 15//14
f 15//15 18//15 16//15 13//15
f 16//16 19//16 20//16 17//16
f 17//17 20//17 21//17 18//17
f 18//18 21//18 19//18 16//18
f 19//19 22//19 23//19 20//19
f 20//20 23//20 24//20 21//20
f 21//21 24//21 22//21 19//21
f 22//22 1//22 2//22 23//22
f 23//23 2//23 3//23 24//23
f 24//24 3//24 1//24 22//24
